<svg width="202" height="30" viewBox="0 0 202 30" fill="none" xmlns="http://www.w3.org/2000/svg">
<path d="M7.52624 16.3209C4.02377 15.6382 1.08526 13.8276 1.08526 10.0877C1.08526 5.75414 5.68596 3.85449 9.66334 3.85449C14.1156 3.85449 17.9149 6.4665 18.1227 10.5923H14.0266C13.7001 8.06933 11.5036 7.23823 9.48525 7.23823C7.52624 7.23823 5.32978 7.98028 5.32978 9.9096C5.32978 11.4234 6.6061 12.2545 8.32765 12.581L11.1474 13.0856C14.6499 13.7089 18.5086 15.1039 18.5086 19.5562C18.5086 23.9788 14.1156 26.1456 9.78207 26.1456C4.49868 26.1456 0.996217 23.2962 0.610352 18.6658H4.70646C5.18137 21.8121 7.37783 22.7619 9.93048 22.7619C11.8301 22.7619 14.2344 22.0792 14.2344 19.764C14.2344 17.9237 12.5425 17.241 10.257 16.8255L7.52624 16.3209Z" fill="white"/>
<path d="M26.9827 7.2976H20.3636V3.85449H37.876V7.2976H31.2272V25.3739H26.9827V7.2976Z" fill="white"/>
<rect x="45.2964" y="3.85449" width="15.7685" height="3.71024" rx="0.92756" fill="#628365"/>
<rect x="42.5138" y="12.2025" width="15.7685" height="3.71024" rx="0.92756" fill="#628365"/>
<rect x="39.7311" y="21.4781" width="15.7685" height="3.71024" rx="0.92756" fill="#628365"/>
<path d="M70.2813 3.85449C74.7039 3.85449 79.7498 4.47781 79.7498 10.9782C79.7498 16.4693 75.3569 17.805 70.4 17.805H67.1647V25.3739H62.9202V3.85449H70.2813ZM67.1647 7.17887V14.5103H70.6671C73.3088 14.5103 75.3866 13.8573 75.3866 11.0078C75.3866 7.47569 72.6855 7.17887 70.3703 7.17887H67.1647Z" fill="white"/>
<path d="M96.3642 5.80222V11.8573C97.0988 10.5884 98.3677 9.76476 100.282 9.76476C103.02 9.76476 105.402 12.0577 105.402 15.998C105.402 19.9605 103.02 22.2312 100.282 22.2312C98.3677 22.2312 97.0988 21.4075 96.3642 20.1386V21.9418H94.3384V5.80222H96.3642ZM99.7702 20.4948C101.841 20.4948 103.198 18.8474 103.198 15.998C103.198 13.1485 101.841 11.5012 99.7702 11.5012C97.967 11.5012 96.2752 12.8368 96.2752 15.998C96.2752 19.1591 97.967 20.4948 99.7702 20.4948ZM116.262 9.96511L111.988 22.4538C111.12 25.0584 110.496 25.8375 107.825 25.8375H106.779V24.1457H107.602C108.938 24.1457 109.584 24.0566 110.118 22.1866L110.207 21.9418L105.888 9.96511H108.137L111.186 19.2036L114.147 9.96511H116.262Z" fill="#C5C6C8"/>
<path d="M134.398 16.2252C131.149 15.592 128.423 13.9125 128.423 10.4435C128.423 6.4239 132.691 4.66187 136.38 4.66187C140.51 4.66187 144.034 7.08466 144.227 10.9116H140.427C140.124 8.57138 138.087 7.80049 136.215 7.80049C134.398 7.80049 132.36 8.48878 132.36 10.2783C132.36 11.6825 133.544 12.4534 135.141 12.7562L137.757 13.2242C141.005 13.8024 144.585 15.0964 144.585 19.2262C144.585 23.3284 140.51 25.3382 136.49 25.3382C131.59 25.3382 128.341 22.6952 127.983 18.4002H131.782C132.223 21.3186 134.26 22.1996 136.628 22.1996C138.39 22.1996 140.62 21.5664 140.62 19.4189C140.62 17.7119 139.051 17.0787 136.931 16.6932L134.398 16.2252Z" fill="white"/>
<path d="M152.445 7.85555H146.305V4.66187H162.549V7.85555H156.382V24.6224H152.445V7.85555Z" fill="white"/>
<rect x="169.432" y="4.66187" width="14.6263" height="3.44147" rx="0.860368" fill="#628365"/>
<rect x="166.851" y="12.4052" width="14.6263" height="3.44147" rx="0.860368" fill="#628365"/>
<rect x="164.27" y="21.0089" width="14.6263" height="3.44147" rx="0.860368" fill="#628365"/>
<path d="M192.607 4.66187C196.709 4.66187 201.39 5.24003 201.39 11.2695C201.39 16.3629 197.315 17.6018 192.717 17.6018H189.716V24.6224H185.779V4.66187H192.607ZM189.716 7.74542V14.5458H192.965C195.415 14.5458 197.342 13.9401 197.342 11.297C197.342 8.02074 194.837 7.74542 192.69 7.74542H189.716Z" fill="white"/>
</svg>
